HIERARCHY
ROOT Hips
{
	OFFSET	0	0	0
	CHANNELS 6  Xposition Yposition Zposition Xrotation Yrotation Zrotation
	JOINT Spine
	{
		OFFSET	0	7.0817	1.42564
		CHANNELS 3  Xrotation Yrotation Zrotation
		JOINT Spine1
		{
			OFFSET	0	12.1578	-2.17103
			CHANNELS 3  Xrotation Yrotation Zrotation
			JOINT Spine2
			{
				OFFSET	0	9.21601	0.987817
				CHANNELS 3  Xrotation Yrotation Zrotation
				JOINT Spine3
				{
					OFFSET	0	11.0288	3.27825
					CHANNELS 3  Xrotation Yrotation Zrotation
					JOINT Spine4
					{
						OFFSET	0	16.3261	-1.67169
						CHANNELS 3  Xrotation Yrotation Zrotation
						JOINT Neck
						{
							OFFSET	0	7.79399	-5.46013
							CHANNELS 3  Xrotation Yrotation Zrotation
							JOINT Head
							{
								OFFSET	0	9.35713	-2.80063
								CHANNELS 3  Xrotation Yrotation Zrotation
								End Site
								{
									OFFSET	0	19.5175	-0.944397
								}
							}
						}
					}
					JOINT LeftShoulder
					{
						OFFSET	-4.68942	19.8432	-9.35713
						CHANNELS 3  Xrotation Yrotation Zrotation
						JOINT LeftArm
						{
							OFFSET	-10.2519	-2.80063	3.59307
							CHANNELS 3  Xrotation Yrotation Zrotation
							JOINT LeftForeArm
							{
								OFFSET	-34.1249	-1.55752	2.4358
								CHANNELS 3  Xrotation Yrotation Zrotation
								JOINT LeftHand
								{
									OFFSET	-28.1809	-1.94746	2.01152
									CHANNELS 3  Xrotation Yrotation Zrotation
									End Site
									{
										OFFSET	-10.2846	-0.710727	0.734058
									}
								}
							}
						}
					}
					JOINT RightShoulder
					{
						OFFSET	4.68942	19.8432	-9.35713
						CHANNELS 3  Xrotation Yrotation Zrotation
						JOINT RightArm
						{
							OFFSET	10.2519	-2.80063	3.59307
							CHANNELS 3  Xrotation Yrotation Zrotation
							JOINT RightForeArm
							{
								OFFSET	34.1249	-1.55752	2.4358
								CHANNELS 3  Xrotation Yrotation Zrotation
								JOINT RightHand
								{
									OFFSET	28.1809	-1.94746	2.01152
									CHANNELS 3  Xrotation Yrotation Zrotation
									End Site
									{
										OFFSET	10.2846	-0.710727	0.734058
									}
								}
							}
						}
					}
				}
			}
		}
	}
	JOINT LeftUpLeg
	{
		OFFSET	-9.64475	-3.54085	-0.712821
		CHANNELS 3  Xrotation Yrotation Zrotation
		JOINT LeftLeg
		{
			OFFSET	-2.14734	-42.0762	-0.657743
			CHANNELS 3  Xrotation Yrotation Zrotation
			JOINT LeftFoot
			{
				OFFSET	-2.09898	-38.6909	3.32741
				CHANNELS 3  Xrotation Yrotation Zrotation
				JOINT LeftToeBase
				{
					OFFSET	0	-4.81787	-12.7963
					CHANNELS 3  Xrotation Yrotation Zrotation
					End Site
					{
						OFFSET	0	-1.92715	-7.70859
					}
				}
			}
		}
	}
	JOINT RightUpLeg
	{
		OFFSET	9.64475	-3.54085	-0.712821
		CHANNELS 3  Xrotation Yrotation Zrotation
		JOINT RightLeg
		{
			OFFSET	2.14734	-42.0762	-0.657743
			CHANNELS 3  Xrotation Yrotation Zrotation
			JOINT RightFoot
			{
				OFFSET	2.09898	-38.6909	3.32741
				CHANNELS 3  Xrotation Yrotation Zrotation
				JOINT RightToeBase
				{
					OFFSET	0	-4.81787	-12.7963
					CHANNELS 3  Xrotation Yrotation Zrotation
					End Site
					{
						OFFSET	0	-1.92715	-7.70859
					}
				}
			}
		}
	}
}
MOTION
Frames: 7
Frame Time: 0.020408
 0 -10.1657 2.85827 -0 0 -0 -0 0 -0 -0 0 -0 -0 0 -0 -0 0 -0 -0 0 -0 -0 0 -0 -0 0 -0 -0 0 -0 -0 0 -0 -0 0 -0 -0 0 -0 -0 0 -0 -0 0 -0 -0 0 -0 -0 0 -0 -0 0 -0 -0 0 -0 -0 0 -0 -0 0 -0 -0 0 -0 -0 0 -0 -0 0 -0 -0 0 -0
 -167.215 89.9994 -256.674 178.156 -27.2028 -166.236 0.000870327 0.021506 -2.31744 176.679 179.957 176.138 176.849 179.871 176.138 178.278 179.978 177.683 177.743 179.97 179.228 176.698 174.722 -176.445 179.01 174.088 -178.49 1.03961 -15.1293 2.20694 166.116 -142.107 -125.118 155.83 -150.178 165.487 -0 15.3582 -12.2225 1.48822 11.5677 -3.11142 2.31605 30.0068 -72.2139 37.4835 24.1268 -15.3941 -0 -19.542 -2.73109 20.5572 -2.07917 -21.6605 150.724 175.827 -179.851 5.50548 -0.045483 -8.70862 179.424 180 -180 33.1214 36.0875 -39.3989 163.767 165.286 179.424 39.4949 0.198702 9.14322 1.44452 0 0
 -166.895 89.9665 -256.553 178.249 -27.3941 -166.295 0.00130063 0.0326732 -2.27958 176.815 179.935 176.201 176.982 179.804 176.201 178.351 179.967 177.72 177.825 179.971 179.241 176.825 175.017 -177.071 179.042 174.031 -178.664 1.31664 -16.0508 2.8049 165.032 -143.254 -126.064 155.069 -149.685 164.868 -0 14.9968 -12.6566 1.44396 10.1762 -2.9971 1.96316 29.6911 -72.4014 37.7018 24.7355 -15.85 -0 -19.4552 -2.81511 20.7099 -0.627679 -21.8088 150.639 174.477 -179.856 6.34644 -0.0674123 -8.89336 179.426 180 -180 34.3 37.5558 -40.7864 163.92 165.519 179.966 39.8493 -0.0238722 9.01625 1.50059 0 0
 -166.459 89.9348 -256.017 177.962 -28.249 -166.619 0.0011183 0.0287099 -2.23065 176.93 179.943 176.282 177.089 179.828 176.282 178.407 179.971 177.769 177.913 179.973 179.257 176.982 175.211 -177.608 179.084 173.882 -178.805 1.33824 -17.0031 2.86006 164.699 -143.809 -126.358 154.066 -148.522 163.949 -0 14.2553 -13.4564 1.45187 8.4915 -2.98479 1.42299 29.2541 -72.7804 37.5755 25.051 -15.9616 -0 -19.4523 -2.63367 20.9286 0.809532 -22.0032 150.281 172.923 -179.846 6.24154 -0.0970517 -9.07025 179.417 180 -180 35.2693 38.7281 -41.9123 164.877 165.825 179.742 39.8183 -0.0820677 8.80388 1.55364 0 0
 -166.06 89.881 -255.662 177.709 -29.7513 -166.915 0.000626767 0.016267 -2.20651 177.026 179.968 176.322 177.186 179.903 176.322 178.486 179.984 177.794 177.914 179.973 179.265 176.902 175.491 -178.157 179.057 173.835 -178.956 1.39393 -18.4429 2.99198 164.426 -144.11 -126.568 153.368 -147.976 163.302 -0 13.7701 -14.0514 1.39865 7.13133 -2.85107 0.92491 28.9355 -72.8674 37.2483 25.2915 -15.9207 -0 -19.6216 -2.22457 21.674 2.05596 -22.9114 150.257 171.654 -179.024 5.33279 -0.0458818 -8.97914 179.391 180 -180 35.068 39.7377 -41.9234 165.779 166.077 179.64 40.1637 -0.062235 8.61156 1.60181 0 0
 -166.927 89.7509 -256.14 178.435 -29.5126 -166.368 179.999 -179.979 177.819 177.15 -179.958 176.365 177.292 -179.874 176.365 178.543 -179.979 177.819 178.019 179.975 179.273 177.074 175.412 -177.898 179.111 173.968 -178.895 1.0594 -19.8336 2.28151 163.589 -144.655 -126.991 152.997 -147.964 162.936 -0 13.4996 -14.4999 1.34684 6.82243 -2.73986 2.25945 28.9475 -73.5229 37.2025 26.0792 -16.5975 -0 -19.8677 -1.85672 24.8586 2.36063 -22.6248 150.455 170.332 179.977 3.08809 0.0499649 -8.94619 179.358 180 -180 38.0141 40.0201 -45.3388 167.53 166.493 -178.686 39.6227 0.0173312 8.47632 1.64333 0 0
 -166.983 89.7534 -255.842 178.681 -29.3426 -165.682 180 -179.993 177.87 177.248 -179.986 176.45 177.4 -179.958 176.45 178.625 -179.993 177.87 178.011 179.975 179.29 176.955 175.535 -177.83 179.077 174.234 -178.897 0.664152 -20.8633 1.43328 163.109 -145.128 -127.441 152.292 -147.677 162.392 -0 13.0092 -15.3877 1.32388 5.33179 -2.66588 3.23475 28.6542 -74.5416 37.1677 27.2633 -17.032 -0 -19.8229 -1.2087 25.8118 3.55345 -24.607 149.725 168.436 -179.517 1.94986 0.0351175 -8.94369 179.331 180 -180 39.262 41.1284 -45.5373 168.414 166.968 179.981 39.9124 0.06102 8.46229 1.68477 0 0
